# Blender 4.0.2
# www.blender.org
mtllib boat.mtl
o Cylinder
v -0.050000 0.000000 -0.100000
v -0.010000 -0.000000 -0.100000
v -0.050000 -0.019509 -0.098079
v -0.010000 -0.019509 -0.098079
v -0.050000 -0.038268 -0.092388
v -0.010000 -0.038268 -0.092388
v -0.050000 -0.055557 -0.083147
v -0.010000 -0.055557 -0.083147
v -0.050000 -0.070711 -0.070711
v -0.010000 -0.070711 -0.070711
v -0.050000 -0.083147 -0.055557
v -0.010000 -0.083147 -0.055557
v -0.050000 -0.092388 -0.038268
v -0.010000 -0.092388 -0.038268
v -0.050000 -0.098079 -0.019509
v -0.010000 -0.098079 -0.019509
v -0.050000 -0.100000 0.000000
v -0.010000 -0.100000 0.000000
v -0.050000 -0.098079 0.019509
v -0.010000 -0.098079 0.019509
v -0.050000 -0.092388 0.038268
v -0.010000 -0.092388 0.038268
v -0.050000 -0.083147 0.055557
v -0.010000 -0.083147 0.055557
v -0.050000 -0.070711 0.070711
v -0.010000 -0.070711 0.070711
v -0.050000 -0.055557 0.083147
v -0.010000 -0.055557 0.083147
v -0.050000 -0.038268 0.092388
v -0.010000 -0.038268 0.092388
v -0.050000 -0.019509 0.098079
v -0.010000 -0.019509 0.098079
v -0.050000 0.000000 0.100000
v -0.010000 -0.000000 0.100000
v -0.140000 -0.019509 0.098079
v -0.130000 0.000000 0.040000
v -0.130000 0.000000 -0.040000
v -0.130000 0.000000 0.010000
v -0.130000 0.000000 -0.010000
v -0.130000 0.000000 0.100000
v -0.130000 -0.019509 0.098079
v -0.130000 -0.038268 0.092388
v -0.130000 -0.055557 0.083147
v -0.130000 -0.070711 0.070711
v -0.130000 -0.083147 0.055557
v -0.130000 -0.092388 0.038268
v -0.130000 -0.098079 0.019509
v -0.130000 -0.100000 0.000000
v -0.130000 -0.098079 -0.019509
v -0.130000 -0.092388 -0.038268
v -0.130000 -0.083147 -0.055557
v -0.130000 -0.070711 -0.070711
v -0.130000 -0.055557 -0.083147
v -0.130000 -0.038268 -0.092388
v -0.130000 -0.019509 -0.098079
v -0.130000 0.000000 -0.100000
v -0.050000 0.000000 -0.010000
v -0.010000 -0.000000 -0.010000
v -0.050000 0.000000 0.010000
v -0.010000 -0.000000 0.010000
v -0.010000 -0.000000 -0.040000
v -0.050000 0.000000 -0.040000
v -0.010000 -0.000000 0.040000
v -0.050000 0.000000 0.040000
v -0.140000 -0.038268 0.092388
v -0.140000 -0.038268 -0.092388
v -0.140000 -0.019509 -0.098079
v -0.150000 -0.038268 0.092388
v -0.150000 -0.055557 0.083147
v -0.150000 -0.055557 -0.083147
v -0.150000 -0.038268 -0.092388
v -0.160000 -0.055557 0.083147
v -0.160000 -0.070711 0.070711
v -0.160000 -0.070711 -0.070711
v -0.160000 -0.055557 -0.083147
v -0.170000 -0.070711 0.070711
v -0.170000 -0.083147 0.055557
v -0.170000 -0.083147 -0.055557
v -0.170000 -0.070711 -0.070711
v -0.180000 -0.083147 0.055557
v -0.180000 -0.092388 0.038268
v -0.180000 -0.092388 -0.038268
v -0.180000 -0.083147 -0.055557
v -0.190000 -0.092388 0.038268
v -0.190000 -0.098079 0.019509
v -0.190000 -0.100000 0.000000
v -0.190000 -0.098079 -0.019509
v -0.190000 -0.092388 -0.038268
v -0.200000 -0.098079 0.019509
v -0.210000 -0.100000 0.000000
v -0.200000 -0.098079 -0.019509
v -0.220000 0.000000 0.019509
v -0.240000 0.000000 0.000000
v -0.220000 0.000000 -0.019509
v -0.200000 0.000000 0.038268
v -0.200000 0.000000 -0.038268
v -0.190000 0.000000 0.055557
v -0.190000 0.000000 -0.055557
v -0.170000 0.000000 0.077782
v -0.170000 0.000000 -0.077782
v -0.160000 0.000000 0.083147
v -0.160000 0.000000 -0.083147
v -0.150000 0.000000 0.092388
v -0.150000 0.000000 -0.092388
v -0.140000 0.000000 0.098079
v -0.140000 0.000000 -0.098079
v -0.000000 -0.000000 -0.100000
v -0.000000 -0.019509 -0.098079
v -0.000000 -0.038268 -0.092388
v -0.000000 -0.055557 -0.083147
v -0.000000 -0.070711 -0.070711
v -0.000000 -0.083147 -0.055557
v -0.000000 -0.092388 -0.038268
v -0.000000 -0.098079 -0.019509
v -0.000000 -0.100000 0.000000
v -0.000000 -0.098079 0.019509
v -0.000000 -0.092388 0.038268
v -0.000000 -0.083147 0.055557
v -0.000000 -0.070711 0.070711
v -0.000000 -0.055557 0.083147
v -0.000000 -0.038268 0.092388
v -0.000000 -0.019509 0.098079
v -0.000000 -0.000000 0.100000
v -0.000000 -0.000000 -0.010000
v -0.000000 -0.000000 0.010000
v -0.000000 -0.000000 -0.040000
v -0.000000 -0.000000 0.040000
v -0.001632 0.160000 -0.010000
v -0.001632 0.160000 0.010000
v -0.000000 0.160000 -0.010000
v -0.000000 0.160000 0.010000
v -0.001632 0.240000 -0.010000
v -0.001632 0.240000 0.010000
v -0.000000 0.240000 -0.010000
v -0.000000 0.240000 0.010000
v -0.001632 0.160000 0.100000
v -0.000000 0.160000 0.100000
v -0.001632 0.240000 0.100000
v -0.000000 0.240000 0.100000
v -0.001632 0.160000 -0.100000
v -0.000000 0.160000 -0.100000
v -0.001632 0.240000 -0.100000
v -0.000000 0.240000 -0.100000
v -0.001632 0.300000 0.000000
v -0.000000 0.300000 0.000000
v -0.010102 0.188000 -0.041500
v -0.010102 0.212000 -0.041500
v -0.010102 0.188000 -0.068500
v -0.010102 0.212000 -0.068500
v -0.010000 0.212000 0.041500
v -0.010000 0.188000 0.041500
v -0.010000 0.212000 0.068500
v -0.010000 0.188000 0.068500
v 0.050000 0.000000 -0.100000
v 0.010000 -0.000000 -0.100000
v 0.050000 -0.019509 -0.098079
v 0.010000 -0.019509 -0.098079
v 0.050000 -0.038268 -0.092388
v 0.010000 -0.038268 -0.092388
v 0.050000 -0.055557 -0.083147
v 0.010000 -0.055557 -0.083147
v 0.050000 -0.070711 -0.070711
v 0.010000 -0.070711 -0.070711
v 0.050000 -0.083147 -0.055557
v 0.010000 -0.083147 -0.055557
v 0.050000 -0.092388 -0.038268
v 0.010000 -0.092388 -0.038268
v 0.050000 -0.098079 -0.019509
v 0.010000 -0.098079 -0.019509
v 0.050000 -0.100000 0.000000
v 0.010000 -0.100000 0.000000
v 0.050000 -0.098079 0.019509
v 0.010000 -0.098079 0.019509
v 0.050000 -0.092388 0.038268
v 0.010000 -0.092388 0.038268
v 0.050000 -0.083147 0.055557
v 0.010000 -0.083147 0.055557
v 0.050000 -0.070711 0.070711
v 0.010000 -0.070711 0.070711
v 0.050000 -0.055557 0.083147
v 0.010000 -0.055557 0.083147
v 0.050000 -0.038268 0.092388
v 0.010000 -0.038268 0.092388
v 0.050000 -0.019509 0.098079
v 0.010000 -0.019509 0.098079
v 0.050000 0.000000 0.100000
v 0.010000 -0.000000 0.100000
v 0.140000 -0.019509 0.098079
v 0.130000 -0.000000 0.040000
v 0.130000 -0.000000 -0.040000
v 0.130000 -0.000000 0.010000
v 0.130000 -0.000000 -0.010000
v 0.130000 -0.000000 0.100000
v 0.130000 -0.019509 0.098079
v 0.130000 -0.038268 0.092388
v 0.130000 -0.055557 0.083147
v 0.130000 -0.070711 0.070711
v 0.130000 -0.083147 0.055557
v 0.130000 -0.092388 0.038268
v 0.130000 -0.098079 0.019509
v 0.130000 -0.100000 0.000000
v 0.130000 -0.098079 -0.019509
v 0.130000 -0.092388 -0.038268
v 0.130000 -0.083147 -0.055557
v 0.130000 -0.070711 -0.070711
v 0.130000 -0.055557 -0.083147
v 0.130000 -0.038268 -0.092388
v 0.130000 -0.019509 -0.098079
v 0.130000 -0.000000 -0.100000
v 0.050000 0.000000 -0.010000
v 0.010000 -0.000000 -0.010000
v 0.050000 0.000000 0.010000
v 0.010000 -0.000000 0.010000
v 0.010000 -0.000000 -0.040000
v 0.050000 0.000000 -0.040000
v 0.010000 -0.000000 0.040000
v 0.050000 0.000000 0.040000
v 0.140000 -0.038268 0.092388
v 0.140000 -0.038268 -0.092388
v 0.140000 -0.019509 -0.098079
v 0.150000 -0.038268 0.092388
v 0.150000 -0.055557 0.083147
v 0.150000 -0.055557 -0.083147
v 0.150000 -0.038268 -0.092388
v 0.160000 -0.055557 0.083147
v 0.160000 -0.070711 0.070711
v 0.160000 -0.070711 -0.070711
v 0.160000 -0.055557 -0.083147
v 0.170000 -0.070711 0.070711
v 0.170000 -0.083147 0.055557
v 0.170000 -0.083147 -0.055557
v 0.170000 -0.070711 -0.070711
v 0.180000 -0.083147 0.055557
v 0.180000 -0.092388 0.038268
v 0.180000 -0.092388 -0.038268
v 0.180000 -0.083147 -0.055557
v 0.190000 -0.092388 0.038268
v 0.190000 -0.098079 0.019509
v 0.190000 -0.100000 0.000000
v 0.190000 -0.098079 -0.019509
v 0.190000 -0.092388 -0.038268
v 0.200000 -0.098079 0.019509
v 0.210000 -0.100000 0.000000
v 0.200000 -0.098079 -0.019509
v 0.220000 -0.000000 0.019509
v 0.240000 -0.000000 0.000000
v 0.220000 -0.000000 -0.019509
v 0.200000 -0.000000 0.038268
v 0.200000 -0.000000 -0.038268
v 0.190000 -0.000000 0.055557
v 0.190000 -0.000000 -0.055557
v 0.170000 -0.000000 0.077782
v 0.170000 -0.000000 -0.077782
v 0.160000 -0.000000 0.083147
v 0.160000 -0.000000 -0.083147
v 0.150000 -0.000000 0.092388
v 0.150000 -0.000000 -0.092388
v 0.140000 -0.000000 0.098079
v 0.140000 -0.000000 -0.098079
v 0.000000 -0.000000 -0.100000
v 0.000000 -0.019509 -0.098079
v 0.000000 -0.038268 -0.092388
v 0.000000 -0.055557 -0.083147
v -0.000000 -0.070711 -0.070711
v -0.000000 -0.083147 -0.055557
v -0.000000 -0.092388 -0.038268
v -0.000000 -0.098079 -0.019509
v -0.000000 -0.100000 0.000000
v -0.000000 -0.098079 0.019509
v -0.000000 -0.092388 0.038268
v -0.000000 -0.083147 0.055557
v -0.000000 -0.070711 0.070711
v 0.000000 -0.055557 0.083147
v 0.000000 -0.038268 0.092388
v 0.000000 -0.019509 0.098079
v 0.000000 -0.000000 0.100000
v 0.000000 -0.000000 -0.010000
v 0.000000 -0.000000 0.010000
v 0.000000 -0.000000 -0.040000
v 0.000000 -0.000000 0.040000
v 0.001632 0.160000 -0.010000
v 0.001632 0.160000 0.010000
v 0.000000 0.160000 -0.010000
v 0.000000 0.160000 0.010000
v 0.001632 0.240000 -0.010000
v 0.001632 0.240000 0.010000
v 0.000000 0.240000 -0.010000
v 0.000000 0.240000 0.010000
v 0.001632 0.160000 0.100000
v 0.000000 0.160000 0.100000
v 0.001632 0.240000 0.100000
v 0.000000 0.240000 0.100000
v 0.001632 0.160000 -0.100000
v 0.000000 0.160000 -0.100000
v 0.001632 0.240000 -0.100000
v 0.000000 0.240000 -0.100000
v 0.001632 0.300000 0.000000
v 0.000000 0.300000 0.000000
v 0.010102 0.188000 -0.041500
v 0.010102 0.212000 -0.041500
v 0.010102 0.188000 -0.068500
v 0.010102 0.212000 -0.068500
v 0.010000 0.212000 0.041500
v 0.010000 0.188000 0.041500
v 0.010000 0.212000 0.068500
v 0.010000 0.188000 0.068500
vn -0.0000 -0.0980 -0.9952
vn -0.0000 -0.2903 -0.9569
vn -0.0000 -0.4714 -0.8819
vn -0.0000 -0.6344 -0.7730
vn -0.0000 -0.7730 -0.6344
vn -0.0000 -0.8819 -0.4714
vn -0.0000 -0.9569 -0.2903
vn -0.0000 -0.9952 -0.0980
vn -0.0000 -0.9952 0.0980
vn -0.0000 -0.9569 0.2903
vn -0.0000 -0.8819 0.4714
vn -0.0000 -0.7730 0.6344
vn -0.0000 -0.6344 0.7730
vn -0.0000 -0.4714 0.8819
vn -0.0000 -0.2903 0.9569
vn -0.0000 -0.0980 0.9952
vn -0.0000 1.0000 -0.0000
vn -0.7729 -0.1951 -0.6038
vn -0.7729 -0.1951 0.6038
vn -0.7663 -0.1207 0.6310
vn -0.7663 -0.1207 -0.6310
vn -0.8501 -0.0969 0.5176
vn -0.7644 -0.0791 0.6398
vn -0.6460 -0.0427 0.7621
vn -0.6787 -0.0000 0.7344
vn -0.4946 -0.0000 0.8691
vn -0.1887 -0.0000 0.9820
vn -0.8501 -0.0969 -0.5176
vn -0.7644 -0.0791 -0.6398
vn -0.6460 -0.0427 -0.7621
vn -0.6787 -0.0000 -0.7344
vn -0.4946 -0.0000 -0.8691
vn -0.1887 -0.0000 -0.9820
vn -0.0000 -0.0000 -1.0000
vn 1.0000 -0.0000 -0.0000
vn -0.9986 0.0522 -0.0000
vn -0.0000 -0.0000 1.0000
vn -1.0000 -0.0000 -0.0000
vn -0.0000 -1.0000 -0.0000
vn 0.9417 -0.3363 -0.0000
vn 0.9522 -0.0000 -0.3054
vn -0.0000 0.8575 0.5145
vn -0.0000 0.8575 -0.5145
vn 0.9407 -0.3394 -0.0000
vn 0.9522 -0.0000 0.3054
vn 0.9407 0.3394 -0.0000
vn 0.9531 -0.0000 0.3026
vn 0.9417 0.3363 -0.0000
vn 0.9531 -0.0000 -0.3026
vn 0.7729 -0.1951 -0.6038
vn 0.7729 -0.1951 0.6038
vn 0.7663 -0.1207 0.6310
vn 0.7663 -0.1207 -0.6310
vn 0.8501 -0.0969 0.5176
vn 0.7644 -0.0791 0.6398
vn 0.6460 -0.0427 0.7621
vn 0.6787 -0.0000 0.7344
vn 0.4946 -0.0000 0.8691
vn 0.1887 -0.0000 0.9820
vn 0.8501 -0.0969 -0.5176
vn 0.7644 -0.0791 -0.6398
vn 0.6460 -0.0427 -0.7621
vn 0.6787 -0.0000 -0.7344
vn 0.4946 -0.0000 -0.8691
vn 0.1887 -0.0000 -0.9820
vn 0.9986 0.0522 -0.0000
vn -0.9417 -0.3363 -0.0000
vn -0.9522 -0.0000 -0.3054
vn -0.9407 -0.3394 -0.0000
vn -0.9522 -0.0000 0.3054
vn -0.9407 0.3394 -0.0000
vn -0.9531 -0.0000 0.3026
vn -0.9417 0.3363 -0.0000
vn -0.9531 -0.0000 -0.3026
vt 1.000000 0.500000
vt 1.000000 1.000000
vt 0.968750 1.000000
vt 0.968750 0.500000
vt 0.937500 1.000000
vt 0.937500 0.500000
vt 0.906250 1.000000
vt 0.906250 0.500000
vt 0.875000 1.000000
vt 0.875000 0.500000
vt 0.843750 1.000000
vt 0.843750 0.500000
vt 0.812500 1.000000
vt 0.812500 0.500000
vt 0.781250 1.000000
vt 0.781250 0.500000
vt 0.750000 1.000000
vt 0.750000 0.500000
vt 0.718750 1.000000
vt 0.718750 0.500000
vt 0.687500 1.000000
vt 0.687500 0.500000
vt 0.656250 1.000000
vt 0.656250 0.500000
vt 0.625000 1.000000
vt 0.625000 0.500000
vt 0.593750 1.000000
vt 0.593750 0.500000
vt 0.562500 1.000000
vt 0.562500 0.500000
vt 0.531250 1.000000
vt 0.531250 0.500000
vt 0.500000 1.000000
vt 0.500000 0.500000
vt 0.000000 0.000000
s 0
f 1/1/1 2/2/1 4/3/1 3/4/1
f 3/4/2 4/3/2 6/5/2 5/6/2
f 5/6/3 6/5/3 8/7/3 7/8/3
f 7/8/4 8/7/4 10/9/4 9/10/4
f 9/10/5 10/9/5 12/11/5 11/12/5
f 11/12/6 12/11/6 14/13/6 13/14/6
f 13/14/7 14/13/7 16/15/7 15/16/7
f 15/16/8 16/15/8 18/17/8 17/18/8
f 17/18/9 18/17/9 20/19/9 19/20/9
f 19/20/10 20/19/10 22/21/10 21/22/10
f 21/22/11 22/21/11 24/23/11 23/24/11
f 23/24/12 24/23/12 26/25/12 25/26/12
f 25/26/13 26/25/13 28/27/13 27/28/13
f 27/28/14 28/27/14 30/29/14 29/30/14
f 29/30/15 30/29/15 32/31/15 31/32/15
f 31/32/16 32/31/16 34/33/16 33/34/16
f 31/32/16 33/34/16 40/34/16 41/32/16
f 59/34/17 57/1/17 39/1/17 38/34/17
f 11/12/6 13/14/6 50/14/6 51/12/6
f 25/26/13 27/28/13 43/28/13 44/26/13
f 1/1/1 3/4/1 55/4/1 56/1/1
f 15/16/8 17/18/8 48/18/8 49/16/8
f 5/6/3 7/8/3 53/8/3 54/6/3
f 29/30/15 31/32/15 41/32/15 42/30/15
f 19/20/10 21/22/10 46/22/10 47/20/10
f 9/10/5 11/12/5 51/12/5 52/10/5
f 64/34/17 59/34/17 38/34/17 36/34/17
f 60/33/17 58/2/17 57/1/17 59/34/17
f 61/2/17 62/1/17 57/1/17 58/2/17
f 64/34/17 63/33/17 60/33/17 59/34/17
f 21/22/11 23/24/11 45/24/11 46/22/11
f 2/2/17 1/1/17 62/1/17 61/2/17
f 33/34/17 34/33/17 63/33/17 64/34/17
f 62/1/17 1/1/17 56/1/17 37/1/17
f 7/8/4 9/10/4 52/10/4 53/8/4
f 17/18/9 19/20/9 47/20/9 48/18/9
f 27/28/14 29/30/14 42/30/14 43/28/14
f 57/1/17 62/1/17 37/1/17 39/1/17
f 3/4/2 5/6/2 54/6/2 55/4/2
f 33/34/17 64/34/17 36/34/17 40/34/17
f 13/14/7 15/16/7 49/16/7 50/14/7
f 23/24/12 25/26/12 44/26/12 45/24/12
f 54/6/2 66/6/2 67/4/2 55/4/2
f 53/8/3 70/8/3 71/6/3 66/6/3 54/6/3
f 52/10/4 74/10/4 75/8/4 70/8/4 53/8/4
f 51/12/5 78/12/5 79/10/5 74/10/5 52/10/5
f 50/14/6 82/14/6 83/12/6 78/12/6 51/12/6
f 49/16/7 87/16/7 88/14/7 82/14/7 50/14/7
f 47/20/10 46/22/10 81/22/10 84/22/10 85/20/10
f 46/22/11 45/24/11 77/24/11 80/24/11 81/22/11
f 45/24/12 44/26/12 73/26/12 76/26/12 77/24/12
f 44/26/13 43/28/13 69/28/13 72/28/13 73/26/13
f 43/28/14 42/30/14 65/30/14 68/30/14 69/28/14
f 48/18/8 86/18/8 87/16/8 49/16/8
f 41/32/15 35/32/15 65/30/15 42/30/15
f 47/20/9 85/20/9 86/18/9 48/18/9
f 87/16/8 86/18/8 90/18/8 91/16/8
f 86/18/9 85/20/9 89/20/9 90/18/9
f 87/16/7 91/16/7 88/14/7
f 82/14/6 88/14/6 83/12/6
f 78/12/5 83/12/5 79/10/5
f 74/10/4 79/10/4 75/8/4
f 70/8/3 75/8/3 71/6/3
f 66/6/2 71/6/2 67/4/2
f 55/4/1 67/4/1 56/1/1
f 84/22/10 89/20/10 85/20/10
f 80/24/11 84/22/11 81/22/11
f 76/26/12 80/24/12 77/24/12
f 72/28/13 76/26/13 73/26/13
f 68/30/14 72/28/14 69/28/14
f 35/32/15 68/30/15 65/30/15
f 40/34/16 35/32/16 41/32/16
f 91/16/18 90/18/18 93/18/18 94/16/18
f 90/18/19 89/20/19 92/20/19 93/18/19
f 95/35/20 92/20/20 89/20/20 84/22/20
f 96/35/21 88/14/21 91/16/21 94/16/21
f 97/35/22 95/35/22 84/22/22 80/24/22
f 99/35/23 97/35/23 80/24/23 76/26/23
f 101/35/24 99/35/24 76/26/24 72/28/24
f 103/35/25 101/35/25 72/28/25 68/30/25
f 105/35/26 103/35/26 68/30/26 35/32/26
f 35/32/27 40/34/27 105/35/27
f 98/35/28 83/12/28 88/14/28 96/35/28
f 100/35/29 79/10/29 83/12/29 98/35/29
f 102/35/30 75/8/30 79/10/30 100/35/30
f 104/35/31 71/6/31 75/8/31 102/35/31
f 106/35/32 67/4/32 71/6/32 104/35/32
f 67/4/33 106/35/33 56/1/33
f 40/34/17 36/34/17 105/35/17
f 105/35/17 36/34/17 103/35/17
f 103/35/17 36/34/17 101/35/17
f 101/35/17 36/34/17 99/35/17
f 99/35/17 36/34/17 97/35/17
f 36/34/17 38/34/17 95/35/17 97/35/17
f 106/35/17 104/35/17 37/1/17
f 37/1/17 56/1/17 106/35/17
f 104/35/17 102/35/17 37/1/17
f 102/35/17 100/35/17 37/1/17
f 100/35/17 98/35/17 37/1/17
f 37/1/17 98/35/17 96/35/17 39/1/17
f 39/1/17 96/35/17 95/35/17 38/34/17
f 93/18/17 92/20/17 95/35/17 96/35/17 94/16/17
f 124/2/34 58/2/34 128/2/34 130/2/34
f 8/7/3 6/5/3 109/5/3 110/7/3
f 18/17/8 16/15/8 114/15/8 115/17/8
f 4/3/1 2/2/1 107/2/1 108/3/1
f 28/27/13 26/25/13 119/25/13 120/27/13
f 2/2/17 61/2/17 126/2/17 107/2/17
f 14/13/6 12/11/6 112/11/6 113/13/6
f 24/23/11 22/21/11 117/21/11 118/23/11
f 61/2/17 58/2/17 124/2/17 126/2/17
f 34/33/16 32/31/16 122/31/16 123/33/16
f 10/9/4 8/7/4 110/7/4 111/9/4
f 20/19/9 18/17/9 115/17/9 116/19/9
f 30/29/14 28/27/14 120/27/14 121/29/14
f 6/5/2 4/3/2 108/3/2 109/5/2
f 63/33/17 34/33/17 123/33/17 127/33/17
f 16/15/7 14/13/7 113/13/7 114/15/7
f 26/25/12 24/23/12 118/23/12 119/25/12
f 60/33/17 63/33/17 127/33/17 125/33/17
f 12/11/5 10/9/5 111/9/5 112/11/5
f 22/21/10 20/19/10 116/19/10 117/21/10
f 32/31/15 30/29/15 121/29/15 122/31/15
f 131/35/35 130/35/35 134/35/35 135/35/35
f 58/2/36 60/33/36 129/33/36 128/2/36
f 125/35/35 124/35/35 130/35/35 131/35/35
f 60/33/37 125/33/37 131/33/37 129/33/37
f 132/2/17 133/33/17 135/33/17 134/2/17
f 135/33/17 133/33/17 138/33/17 139/33/17
f 128/2/38 129/33/38 133/33/38 132/2/38
f 128/2/38 132/2/38 142/2/38 140/2/38
f 136/33/37 137/33/37 139/33/37 138/33/37
f 129/33/39 131/33/39 137/33/39 136/33/39
f 135/33/40 139/33/40 152/33/40 150/33/40
f 133/33/38 129/33/38 136/33/38 138/33/38
f 141/2/34 140/2/34 142/2/34 143/2/34
f 132/2/17 134/2/17 143/2/17 142/2/17
f 130/2/39 128/2/39 140/2/39 141/2/39
f 134/35/41 130/35/41 146/35/41 147/35/41
f 138/33/42 139/33/42 145/33/42 144/33/42
f 143/2/43 142/2/43 144/33/43 145/33/43
f 144/33/38 142/2/38 138/33/38
f 147/35/35 146/35/35 148/35/35 149/35/35
f 143/2/44 134/2/44 147/2/44 149/2/44
f 141/2/45 143/2/45 149/2/45 148/2/45
f 130/2/46 141/2/46 148/2/46 146/2/46
f 151/35/35 150/35/35 152/35/35 153/35/35
f 131/35/47 135/35/47 150/35/47 151/35/47
f 137/33/48 131/33/48 151/33/48 153/33/48
f 139/33/49 137/33/49 153/33/49 152/33/49
f 154/1/1 156/4/1 157/3/1 155/2/1
f 156/4/2 158/6/2 159/5/2 157/3/2
f 158/6/3 160/8/3 161/7/3 159/5/3
f 160/8/4 162/10/4 163/9/4 161/7/4
f 162/10/5 164/12/5 165/11/5 163/9/5
f 164/12/6 166/14/6 167/13/6 165/11/6
f 166/14/7 168/16/7 169/15/7 167/13/7
f 168/16/8 170/18/8 171/17/8 169/15/8
f 170/18/9 172/20/9 173/19/9 171/17/9
f 172/20/10 174/22/10 175/21/10 173/19/10
f 174/22/11 176/24/11 177/23/11 175/21/11
f 176/24/12 178/26/12 179/25/12 177/23/12
f 178/26/13 180/28/13 181/27/13 179/25/13
f 180/28/14 182/30/14 183/29/14 181/27/14
f 182/30/15 184/32/15 185/31/15 183/29/15
f 184/32/16 186/34/16 187/33/16 185/31/16
f 184/32/16 194/32/16 193/34/16 186/34/16
f 212/34/17 191/34/17 192/1/17 210/1/17
f 164/12/6 204/12/6 203/14/6 166/14/6
f 178/26/13 197/26/13 196/28/13 180/28/13
f 154/1/1 209/1/1 208/4/1 156/4/1
f 168/16/8 202/16/8 201/18/8 170/18/8
f 158/6/3 207/6/3 206/8/3 160/8/3
f 182/30/15 195/30/15 194/32/15 184/32/15
f 172/20/10 200/20/10 199/22/10 174/22/10
f 162/10/5 205/10/5 204/12/5 164/12/5
f 217/34/17 189/34/17 191/34/17 212/34/17
f 213/33/17 212/34/17 210/1/17 211/2/17
f 214/2/17 211/2/17 210/1/17 215/1/17
f 217/34/17 212/34/17 213/33/17 216/33/17
f 174/22/11 199/22/11 198/24/11 176/24/11
f 155/2/17 214/2/17 215/1/17 154/1/17
f 186/34/17 217/34/17 216/33/17 187/33/17
f 215/1/17 190/1/17 209/1/17 154/1/17
f 160/8/4 206/8/4 205/10/4 162/10/4
f 170/18/9 201/18/9 200/20/9 172/20/9
f 180/28/14 196/28/14 195/30/14 182/30/14
f 210/1/17 192/1/17 190/1/17 215/1/17
f 156/4/2 208/4/2 207/6/2 158/6/2
f 186/34/17 193/34/17 189/34/17 217/34/17
f 166/14/7 203/14/7 202/16/7 168/16/7
f 176/24/12 198/24/12 197/26/12 178/26/12
f 207/6/2 208/4/2 220/4/2 219/6/2
f 206/8/3 207/6/3 219/6/3 224/6/3 223/8/3
f 205/10/4 206/8/4 223/8/4 228/8/4 227/10/4
f 204/12/5 205/10/5 227/10/5 232/10/5 231/12/5
f 203/14/6 204/12/6 231/12/6 236/12/6 235/14/6
f 202/16/7 203/14/7 235/14/7 241/14/7 240/16/7
f 200/20/10 238/20/10 237/22/10 234/22/10 199/22/10
f 199/22/11 234/22/11 233/24/11 230/24/11 198/24/11
f 198/24/12 230/24/12 229/26/12 226/26/12 197/26/12
f 197/26/13 226/26/13 225/28/13 222/28/13 196/28/13
f 196/28/14 222/28/14 221/30/14 218/30/14 195/30/14
f 201/18/8 202/16/8 240/16/8 239/18/8
f 194/32/15 195/30/15 218/30/15 188/32/15
f 200/20/9 201/18/9 239/18/9 238/20/9
f 240/16/8 244/16/8 243/18/8 239/18/8
f 239/18/9 243/18/9 242/20/9 238/20/9
f 240/16/7 241/14/7 244/16/7
f 235/14/6 236/12/6 241/14/6
f 231/12/5 232/10/5 236/12/5
f 227/10/4 228/8/4 232/10/4
f 223/8/3 224/6/3 228/8/3
f 219/6/2 220/4/2 224/6/2
f 208/4/1 209/1/1 220/4/1
f 237/22/10 238/20/10 242/20/10
f 233/24/11 234/22/11 237/22/11
f 229/26/12 230/24/12 233/24/12
f 225/28/13 226/26/13 229/26/13
f 221/30/14 222/28/14 225/28/14
f 188/32/15 218/30/15 221/30/15
f 193/34/16 194/32/16 188/32/16
f 244/16/50 247/16/50 246/18/50 243/18/50
f 243/18/51 246/18/51 245/20/51 242/20/51
f 248/35/52 237/22/52 242/20/52 245/20/52
f 249/35/53 247/16/53 244/16/53 241/14/53
f 250/35/54 233/24/54 237/22/54 248/35/54
f 252/35/55 229/26/55 233/24/55 250/35/55
f 254/35/56 225/28/56 229/26/56 252/35/56
f 256/35/57 221/30/57 225/28/57 254/35/57
f 258/35/58 188/32/58 221/30/58 256/35/58
f 188/32/59 258/35/59 193/34/59
f 251/35/60 249/35/60 241/14/60 236/12/60
f 253/35/61 251/35/61 236/12/61 232/10/61
f 255/35/62 253/35/62 232/10/62 228/8/62
f 257/35/63 255/35/63 228/8/63 224/6/63
f 259/35/64 257/35/64 224/6/64 220/4/64
f 220/4/65 209/1/65 259/35/65
f 193/34/17 258/35/17 189/34/17
f 258/35/17 256/35/17 189/34/17
f 256/35/17 254/35/17 189/34/17
f 254/35/17 252/35/17 189/34/17
f 252/35/17 250/35/17 189/34/17
f 189/34/17 250/35/17 248/35/17 191/34/17
f 259/35/17 190/1/17 257/35/17
f 190/1/17 259/35/17 209/1/17
f 257/35/17 190/1/17 255/35/17
f 255/35/17 190/1/17 253/35/17
f 253/35/17 190/1/17 251/35/17
f 190/1/17 192/1/17 249/35/17 251/35/17
f 192/1/17 191/34/17 248/35/17 249/35/17
f 246/18/17 247/16/17 249/35/17 248/35/17 245/20/17
f 277/2/34 283/2/34 281/2/34 211/2/34
f 161/7/3 263/7/3 262/5/3 159/5/3
f 171/17/8 268/17/8 267/15/8 169/15/8
f 157/3/1 261/3/1 260/2/1 155/2/1
f 181/27/13 273/27/13 272/25/13 179/25/13
f 155/2/17 260/2/17 279/2/17 214/2/17
f 167/13/6 266/13/6 265/11/6 165/11/6
f 177/23/11 271/23/11 270/21/11 175/21/11
f 214/2/17 279/2/17 277/2/17 211/2/17
f 187/33/16 276/33/16 275/31/16 185/31/16
f 163/9/4 264/9/4 263/7/4 161/7/4
f 173/19/9 269/19/9 268/17/9 171/17/9
f 183/29/14 274/29/14 273/27/14 181/27/14
f 159/5/2 262/5/2 261/3/2 157/3/2
f 216/33/17 280/33/17 276/33/17 187/33/17
f 169/15/7 267/15/7 266/13/7 167/13/7
f 179/25/12 272/25/12 271/23/12 177/23/12
f 213/33/17 278/33/17 280/33/17 216/33/17
f 165/11/5 265/11/5 264/9/5 163/9/5
f 175/21/10 270/21/10 269/19/10 173/19/10
f 185/31/15 275/31/15 274/29/15 183/29/15
f 284/35/38 288/35/38 287/35/38 283/35/38
f 211/2/66 281/2/66 282/33/66 213/33/66
f 278/35/38 284/35/38 283/35/38 277/35/38
f 213/33/37 282/33/37 284/33/37 278/33/37
f 285/2/17 287/2/17 288/33/17 286/33/17
f 288/33/17 292/33/17 291/33/17 286/33/17
f 281/2/35 285/2/35 286/33/35 282/33/35
f 281/2/35 293/2/35 295/2/35 285/2/35
f 289/33/37 291/33/37 292/33/37 290/33/37
f 282/33/39 289/33/39 290/33/39 284/33/39
f 288/33/67 303/33/67 305/33/67 292/33/67
f 286/33/35 291/33/35 289/33/35 282/33/35
f 294/2/34 296/2/34 295/2/34 293/2/34
f 285/2/17 295/2/17 296/2/17 287/2/17
f 283/2/39 294/2/39 293/2/39 281/2/39
f 287/35/68 300/35/68 299/35/68 283/35/68
f 291/33/42 297/33/42 298/33/42 292/33/42
f 296/2/43 298/33/43 297/33/43 295/2/43
f 297/33/35 291/33/35 295/2/35
f 300/35/38 302/35/38 301/35/38 299/35/38
f 296/2/69 302/2/69 300/2/69 287/2/69
f 294/2/70 301/2/70 302/2/70 296/2/70
f 283/2/71 299/2/71 301/2/71 294/2/71
f 304/35/38 306/35/38 305/35/38 303/35/38
f 284/35/72 304/35/72 303/35/72 288/35/72
f 290/33/73 306/33/73 304/33/73 284/33/73
f 292/33/74 305/33/74 306/33/74 290/33/74
